<svg width="140" height="29" viewBox="0 0 140 29" fill="none" xmlns="http://www.w3.org/2000/svg">
<mask id="mask0_258_20517" style="mask-type:alpha" maskUnits="userSpaceOnUse" x="0" y="0" width="140" height="29">
<path d="M21.4825 13.9355C21.5204 13.9168 21.5488 13.9214 21.5676 13.9495C21.5866 13.9729 21.5866 14.008 21.5676 14.0548C21.5535 14.0969 21.518 14.1366 21.4611 14.174C20.0792 14.9412 18.6759 15.6639 17.2513 16.3422C15.8314 17.0204 14.3193 17.6636 12.7148 18.2717C12.7101 18.2717 12.7006 18.274 12.6864 18.2787C12.6864 18.2787 12.6841 18.2811 12.6793 18.2857C12.6178 18.3091 12.5255 18.3559 12.4025 18.4261C12.2841 18.5009 12.1658 18.6038 12.0475 18.7348C12.0428 18.7395 12.038 18.7442 12.0333 18.7488C10.7744 20.2691 9.2835 21.4877 7.56074 22.4044C6.77508 22.8395 5.94447 23.1692 5.06889 23.3938C4.19804 23.6229 3.37454 23.7493 2.59833 23.7727C1.82688 23.8008 1.19978 23.7284 0.717029 23.5553C0.23901 23.3822 0 23.1109 0 22.7413C0.028397 22.4279 0.409391 22.0629 1.14298 21.6466C1.87658 21.235 2.88942 20.8678 4.18147 20.5451C6.9076 19.8949 9.31189 19.2166 11.3944 18.5103C11.631 18.412 11.7919 18.3068 11.8771 18.1945C12.2652 17.7034 12.6296 17.1935 12.9704 16.6649C13.1692 16.3515 13.3656 16.0451 13.5596 15.7458C13.6164 15.6569 13.6401 15.6007 13.6306 15.5774C13.6259 15.5493 13.5999 15.5446 13.5525 15.5633C13.5052 15.582 13.4531 15.6078 13.3964 15.6405C13.3964 15.6452 13.3964 15.6475 13.3964 15.6475C13.0698 15.8533 12.7693 16.0334 12.4947 16.1878C10.63 17.245 9.17227 17.7876 8.12159 17.8156C8.04113 17.8156 7.9654 17.8109 7.89441 17.8016C7.5915 17.7548 7.38562 17.6636 7.27677 17.5279C7.16792 17.397 7.10638 17.2754 7.09218 17.1631C7.0354 16.8403 7.15609 16.4778 7.45426 16.0755C7.75715 15.6733 8.1902 15.2125 8.75343 14.6933C9.37343 14.1179 9.83251 13.6618 10.1307 13.325C10.4336 12.9836 10.6182 12.7333 10.6844 12.5743C10.7507 12.4105 10.7436 12.303 10.6631 12.2515C10.3366 12.0457 9.87275 12.0316 9.27167 12.2094C8.67533 12.3825 8.11922 12.6631 7.60333 13.0514C7.09218 13.435 6.80349 13.8396 6.73723 14.2653C6.72776 14.3307 6.68042 14.3682 6.59524 14.3775C6.51005 14.3869 6.42012 14.3775 6.32547 14.3494C6.23081 14.3167 6.16218 14.2746 6.11959 14.2232C6.05805 14.1436 6.03913 14.0524 6.0628 13.9495C6.09119 13.8466 6.15508 13.7531 6.25448 13.6688C6.82714 13.2057 7.44478 12.8035 8.10739 12.462C8.76998 12.1159 9.3758 11.8866 9.92481 11.7744C10.4738 11.6621 10.8619 11.7183 11.0891 11.9428C11.3305 12.2 11.2973 12.5836 10.9897 13.0935C10.6821 13.5987 10.0834 14.2653 9.19357 15.0932C9.15098 15.1353 9.10838 15.1751 9.06579 15.2125C8.59249 15.6382 8.19495 16.0334 7.87312 16.3983C7.55601 16.7585 7.42821 17.0578 7.48975 17.2964C7.64594 17.6847 8.25411 17.7291 9.31427 17.4297C10.3744 17.135 11.7328 16.4614 13.3893 15.409C13.4177 15.3903 13.4437 15.3715 13.4673 15.3528C13.4673 15.3528 13.4697 15.3528 13.4744 15.3528C13.7584 15.1517 13.9856 14.9505 14.156 14.7494C14.3311 14.5436 14.4565 14.3775 14.5322 14.2512H14.5393C16.5555 11.1499 18.3327 8.66604 19.8709 6.79964C20.5193 6.01847 21.0636 5.41269 21.5037 4.98235C21.9439 4.54732 22.2965 4.23626 22.5616 4.04913C22.8313 3.86203 23.0372 3.74977 23.1791 3.71235C23.3211 3.67025 23.4205 3.65387 23.4774 3.66324C23.7282 3.67258 23.8843 3.79421 23.9459 4.02808C24.0122 4.36956 23.8561 4.89112 23.4774 5.59278C23.1034 6.29443 22.5663 7.09433 21.8659 7.99245C21.1701 8.8859 20.3655 9.79103 19.4521 10.7079C17.9801 12.1673 16.6336 13.3484 15.4126 14.2512C15.3179 14.3214 15.2351 14.3869 15.1641 14.4477C15.0978 14.5038 14.9819 14.6254 14.8162 14.8125C14.6553 14.9997 14.4849 15.2289 14.3051 15.5002C14.0116 15.9492 13.7135 16.4076 13.4106 16.8754C13.2023 17.1982 12.9846 17.5139 12.7574 17.8227C12.7574 17.8227 12.7574 17.825 12.7574 17.8297C12.7054 17.9045 12.6935 17.9536 12.7219 17.977C12.755 18.0004 12.8024 18.0051 12.8639 17.9911C15.751 16.9058 18.6214 15.5563 21.4753 13.9425C21.4802 13.9378 21.4825 13.9355 21.4825 13.9355ZM15.5545 13.6338C15.493 13.7226 15.467 13.7811 15.4764 13.8092C15.4859 13.8372 15.5119 13.8443 15.5545 13.8302C15.5971 13.8162 15.6421 13.7905 15.6894 13.7531C16.8395 12.8549 18.0298 11.7837 19.2604 10.5395C19.6059 10.1933 20.0247 9.73958 20.5169 9.17824C21.0092 8.61224 21.4872 8.0135 21.951 7.382C22.4195 6.75051 22.7887 6.16348 23.0585 5.62084C23.3282 5.07823 23.4111 4.65491 23.307 4.35086C23.2644 4.33213 22.9756 4.54031 22.4408 4.97534C21.9061 5.41034 21.2198 6.11669 20.3821 7.09433C18.9953 8.75959 17.3862 10.9394 15.5545 13.6338ZM11.2808 18.9102C11.3234 18.8494 11.3305 18.8143 11.3021 18.805C11.2737 18.8003 11.2311 18.8073 11.1743 18.826C9.06342 19.5604 6.64968 20.2621 3.933 20.931C3.0811 21.1416 2.40429 21.359 1.90261 21.5834C1.40093 21.8081 1.03176 22.0162 0.79512 22.2081C0.790386 22.2081 0.785655 22.2104 0.780921 22.2151C0.705197 22.2711 0.617638 22.3531 0.518248 22.4606C0.423591 22.5682 0.369162 22.6804 0.354965 22.7975C0.3455 22.919 0.435423 23.0289 0.624738 23.1271C0.662601 23.146 0.705197 23.1622 0.752524 23.1764C0.752524 23.1764 0.754891 23.1787 0.759623 23.1834C0.759623 23.1834 0.76199 23.1834 0.766724 23.1834C1.11222 23.3144 1.60444 23.3938 2.24338 23.4219C2.88232 23.4498 3.63011 23.3657 4.48676 23.1692C5.34813 22.9729 6.27813 22.6056 7.27677 22.0676C7.3525 22.0255 7.41876 21.9881 7.47555 21.9554C7.51342 21.9368 7.55364 21.9156 7.59623 21.8922C8.98771 21.1251 10.2159 20.1311 11.2808 18.9102ZM32.4437 13.9565C32.4815 13.9378 32.5123 13.9355 32.5361 13.9495C32.5598 13.9589 32.5668 13.9799 32.5574 14.0127C32.5478 14.0407 32.5147 14.0711 32.458 14.1039C31.2557 14.8242 30.1033 15.4885 29.0006 16.0966C27.9025 16.7 26.9583 17.142 26.168 17.4227C25.3776 17.7081 24.8452 17.7244 24.5706 17.4718C24.3861 17.2707 24.3269 17.0204 24.3932 16.7211C24.4594 16.4217 24.5824 16.0709 24.7622 15.6686C24.8285 15.5095 24.8971 15.3388 24.9681 15.1564C25.0013 15.0628 25.0179 14.9997 25.0179 14.9669C25.0179 14.9342 25.0036 14.9225 24.9754 14.9318C24.9516 14.9365 24.9209 14.9552 24.883 14.988C24.8499 15.016 24.8144 15.0464 24.7765 15.0792C24.7765 15.0839 24.7765 15.0862 24.7765 15.0862C23.7115 16.1387 22.8503 16.8988 22.1924 17.3666C21.5345 17.8297 20.9618 18.0308 20.4743 17.97C20.3513 17.956 20.2306 17.9139 20.1123 17.8437C19.9892 17.7782 19.9088 17.6566 19.8709 17.4788C19.8331 17.3058 19.8804 17.0508 20.0129 16.714C20.2827 16.0404 20.5761 15.4347 20.8932 14.8968C21.2103 14.3588 21.5107 13.877 21.7949 13.4513C21.8231 13.4092 21.8516 13.3671 21.88 13.325C22.1308 12.9321 22.2942 12.6655 22.3698 12.5251C22.3698 12.5205 22.3698 12.5135 22.3698 12.5041C22.3698 12.4433 22.3769 12.3825 22.3912 12.3217C22.41 12.2562 22.4479 12.1977 22.5048 12.1462C22.6136 12.0714 22.7415 12.034 22.8881 12.034C23.0348 12.034 23.1389 12.0808 23.2005 12.1743C23.2715 12.3053 23.2548 12.4737 23.1507 12.6795C23.0515 12.8807 22.8409 13.1987 22.5189 13.6338C22.3059 13.9284 22.0361 14.3284 21.7096 14.8336C21.3831 15.3388 21.0944 15.83 20.8435 16.3071C20.5927 16.7795 20.4767 17.1163 20.4956 17.3175C20.5098 17.4531 20.5927 17.542 20.7441 17.5841C20.8908 17.6262 21.1441 17.556 21.5037 17.3736C21.8682 17.1912 22.3793 16.8333 23.0372 16.3001C23.6951 15.7668 24.5398 14.995 25.5717 13.9846C25.6284 13.9331 25.7017 13.8864 25.7917 13.8443C25.8864 13.8022 25.9621 13.7951 26.0188 13.8232C26.0757 13.8513 26.0804 13.9448 26.0331 14.1039C25.9006 14.5015 25.7586 14.8897 25.6072 15.2686C25.4178 15.727 25.2758 16.1293 25.1811 16.4755C25.0866 16.817 25.1101 17.0532 25.2523 17.1841C25.3468 17.2777 25.6427 17.2543 26.1396 17.114C26.6365 16.969 27.3938 16.6485 28.4114 16.1527C29.4289 15.6522 30.7729 14.9201 32.4437 13.9565ZM39.2094 13.9565C39.2331 13.9378 39.2567 13.9308 39.2804 13.9355C39.3088 13.9402 39.3253 13.9542 39.33 13.9776C39.3347 14.001 39.3159 14.029 39.2733 14.0618C37.3422 15.7645 35.7614 17.0953 34.5309 18.0542C33.3051 19.0131 32.3515 19.6867 31.6699 20.075C30.9885 20.4632 30.5033 20.648 30.2145 20.6293C30.0205 20.6293 29.8715 20.5872 29.7674 20.503C29.2042 20.0867 29.5803 18.7488 30.8961 16.4895C32.2119 14.2302 34.3652 10.9979 37.3565 6.79262C37.3753 6.76456 37.3943 6.73648 37.4131 6.70841C37.4653 6.63825 37.5149 6.56809 37.5624 6.49791C37.7706 6.19386 37.9716 5.90152 38.1658 5.62084C38.8568 4.60111 39.4579 3.73339 39.9691 3.01771C40.7878 1.83425 41.3061 1.01331 41.5237 0.554894C41.5049 0.526828 41.5096 0.475373 41.5378 0.400529C41.5663 0.325685 41.6184 0.250843 41.6941 0.175999C41.7698 0.0964784 41.8645 0.042684 41.9781 0.0146179C42.0869 -0.00877067 42.184 -0.00409305 42.2691 0.0286509C42.3591 0.0613949 42.4207 0.115189 42.4538 0.190031C42.5152 0.325685 42.4679 0.526828 42.3118 0.793455C42.1555 1.05541 41.8669 1.46938 41.4457 2.03538C41.1902 2.38154 40.8825 2.80956 40.5226 3.31941C40.4091 3.47846 40.1369 3.85736 39.7063 4.4561C39.3041 5.01274 38.8117 5.69335 38.2297 6.49791C36.9849 8.23803 35.7781 9.94071 34.609 11.606C33.4401 13.2666 32.6 14.4991 32.0888 15.3037C31.6581 16.0007 31.3056 16.6018 31.031 17.107C30.7518 17.6122 30.5365 18.0355 30.3849 18.377C30.2288 18.7184 30.1223 18.9968 30.0654 19.2119C30.0039 19.4271 29.9733 19.5908 29.9733 19.7031C29.9733 19.82 29.9874 19.9042 30.0158 19.9557C30.0443 20.0071 30.0678 20.0399 30.0868 20.0539C30.0915 20.0539 30.0939 20.0562 30.0939 20.0609C30.34 20.2434 30.8134 20.1521 31.5138 19.7873C32.2096 19.4271 33.0212 18.9055 33.9487 18.2226C34.8812 17.5443 35.8136 16.8216 36.7458 16.0545C37.6783 15.2826 38.4995 14.5833 39.2094 13.9565ZM40.3311 12.869C40.2554 12.8596 40.2222 12.8292 40.2316 12.7777C40.2411 12.7263 40.2624 12.6655 40.2956 12.5953C40.3287 12.5392 40.3524 12.4854 40.3666 12.4339C40.3997 12.317 40.454 12.2234 40.5299 12.1533C40.6103 12.0784 40.7074 12.041 40.8209 12.041C40.9013 12.041 40.9723 12.048 41.0339 12.0621C41.0955 12.0761 41.1356 12.1135 41.1547 12.1743C41.1782 12.2351 41.1688 12.3287 41.1262 12.455C41.0505 12.6374 40.9297 12.7567 40.764 12.8128C40.5985 12.869 40.454 12.8877 40.3311 12.869ZM43.6676 13.9565C43.7198 13.9191 43.7553 13.9074 43.7741 13.9214C43.7978 13.9355 43.8025 13.9612 43.7884 13.9986C43.7741 14.0314 43.7459 14.0641 43.7031 14.0969C43.1778 14.4524 42.5958 14.8383 41.9567 15.2546C41.3178 15.6709 40.6907 16.0615 40.0756 16.4264C39.4649 16.7865 38.9372 17.0602 38.4923 17.2473C38.0426 17.4344 37.7493 17.4718 37.612 17.3596C37.4559 17.1958 37.4251 16.9666 37.5198 16.6719C37.6096 16.3772 37.7801 16.0404 38.0309 15.6615C38.277 15.278 38.5538 14.8757 38.8615 14.4547C38.9088 14.3892 38.9513 14.3307 38.9894 14.2793C39.0319 14.2185 39.0721 14.1623 39.11 14.1109C39.1478 14.0594 39.188 14.001 39.2306 13.9355C39.2827 13.87 39.3751 13.8185 39.5075 13.7811C39.64 13.7437 39.7702 13.7273 39.8981 13.732C40.0257 13.732 40.1087 13.7601 40.1465 13.8162C40.1797 13.877 40.182 13.9331 40.1536 13.9846C40.1252 14.0314 40.0803 14.0805 40.0187 14.1319C39.9808 14.1694 39.9406 14.2115 39.8981 14.2582C39.8791 14.2769 39.8389 14.3167 39.7773 14.3775C39.6069 14.5506 39.3702 14.8079 39.0674 15.1493C38.7597 15.4861 38.4899 15.83 38.2581 16.1808C38.0262 16.5316 37.9411 16.8052 38.0024 17.0017C38.1065 17.1561 38.594 17.0087 39.4649 16.5597C40.3358 16.1106 41.7367 15.2429 43.6676 13.9565ZM53.0389 13.9495C53.0767 13.9402 53.1075 13.9472 53.131 13.9706C53.1595 13.9893 53.1712 14.015 53.1665 14.0477C53.1618 14.0805 53.1287 14.1109 53.0671 14.1389C53.0671 14.1436 53.0671 14.146 53.0671 14.146C51.4626 14.857 49.9033 15.6101 48.3886 16.4053C48.0102 16.6065 47.7427 16.7936 47.5866 16.9666C47.435 17.135 47.3309 17.2917 47.2742 17.4367C47.2742 17.4414 47.2742 17.4461 47.2742 17.4508C47.2599 17.4835 47.2458 17.5139 47.2315 17.542C47.2315 17.5513 47.2291 17.5584 47.2244 17.563C47.2244 17.5677 47.2221 17.5701 47.2174 17.5701C47.2174 17.5701 47.2174 17.5724 47.2174 17.5771C45.7311 20.9497 44.0251 23.6745 42.0989 25.7513C41.228 26.6869 40.3713 27.433 39.5288 27.9897C38.6817 28.5463 37.8912 28.8738 37.1576 28.9719C37.03 28.9907 36.9092 29 36.7957 29C35.8679 28.9765 35.3402 28.5579 35.2126 27.7441C35.1273 27.1921 35.3781 26.4413 35.965 25.4918C36.5472 24.5468 37.5434 23.4524 38.9539 22.2081C40.3595 20.9637 42.262 19.6142 44.6617 18.1594C44.6664 18.1594 44.6687 18.1594 44.6687 18.1594C44.6877 18.1454 44.7066 18.1337 44.7256 18.1244C44.7775 18.0916 44.825 18.0636 44.8676 18.0402C45.2225 17.8297 45.5892 17.6192 45.9678 17.4087C46.3465 17.1841 46.6069 16.9736 46.7489 16.7772C46.8909 16.576 46.9877 16.3913 47.0399 16.2229C47.0399 16.2182 47.0423 16.2159 47.047 16.2159C47.3309 15.43 47.4825 14.8009 47.5013 14.3284C47.5203 13.8559 47.447 13.5823 47.2813 13.5075C47.1109 13.4607 46.8246 13.594 46.4222 13.9074C46.02 14.2161 45.5704 14.5974 45.0735 15.0511C44.7042 15.3785 44.3422 15.692 43.9873 15.9913C43.6321 16.286 43.3127 16.5176 43.0288 16.686C42.7401 16.8544 42.5201 16.9105 42.3685 16.8544C42.1887 16.7795 42.1414 16.6135 42.2265 16.3562C42.3069 16.0942 42.494 15.727 42.7874 15.2546C43.1945 14.5857 43.6371 13.9565 44.1149 13.3671C44.1955 13.2783 44.2853 13.2245 44.3848 13.2057C44.4889 13.187 44.593 13.187 44.6971 13.2057C44.8723 13.2478 44.9717 13.3227 44.9952 13.4303C45.0189 13.5379 44.9905 13.6431 44.9101 13.746C44.7822 13.8957 44.6118 14.0875 44.3989 14.3214C44.0439 14.7096 43.7104 15.1002 43.398 15.4931C43.0856 15.8814 42.9484 16.1527 42.9862 16.3071C43.076 16.3679 43.2819 16.2673 43.6039 16.0054C43.9257 15.7387 44.3044 15.4019 44.7397 14.995C45.1137 14.6535 45.4923 14.3167 45.8757 13.9846C46.2591 13.6525 46.6093 13.3858 46.9264 13.1847C47.2435 12.9836 47.4943 12.904 47.6788 12.9461C48.0669 13.0631 48.2657 13.4069 48.2751 13.9776C48.2847 14.5436 48.1261 15.2686 47.7996 16.1527C47.7996 16.1527 47.7996 16.155 47.7996 16.1597C47.7617 16.2673 47.7451 16.3398 47.7498 16.3772C47.7592 16.41 47.7829 16.4217 47.8208 16.4123C47.8586 16.3983 47.9037 16.3772 47.9557 16.3492C47.9604 16.3445 47.9674 16.3398 47.977 16.3351C47.977 16.3351 47.9794 16.3351 47.9841 16.3351C49.5792 15.5212 51.264 14.726 53.0389 13.9495ZM41.5663 25.6951C42.4515 24.7364 43.3033 23.5739 44.122 22.2081C44.9456 20.8421 45.7053 19.3593 46.401 17.7595C46.4673 17.6098 46.4744 17.5279 46.4222 17.5139C46.3749 17.5046 46.2922 17.5326 46.1737 17.5981C45.6625 17.8881 45.1776 18.1711 44.7183 18.4471C42.7495 19.6306 41.0835 20.8094 39.7204 21.9835C38.3526 23.1576 37.3257 24.2334 36.6394 25.211C35.9532 26.1888 35.6432 26.9698 35.7095 27.5546C35.7473 27.8586 35.8869 28.1042 36.1283 28.2914C36.3648 28.4831 36.7009 28.5579 37.1365 28.5159C37.7422 28.4457 38.438 28.1651 39.2235 27.674C40.0093 27.1828 40.7901 26.5231 41.5663 25.6951ZM59.9252 13.9565C59.944 13.9425 59.9654 13.9355 59.9889 13.9355C60.0126 13.9355 60.0293 13.9402 60.0387 13.9495C60.0528 13.9589 60.0505 13.9776 60.0317 14.0056C60.0173 14.0337 59.9795 14.0711 59.9179 14.1179C58.8009 14.9131 57.8142 15.5727 56.9577 16.0966C56.1009 16.6158 55.455 16.8848 55.0194 16.9035C54.7924 16.9035 54.6053 16.8544 54.4586 16.7561C54.0611 16.4661 53.9972 15.9212 54.267 15.1213C54.2905 15.0464 54.3025 14.995 54.3025 14.9669C54.3025 14.9342 54.2929 14.9178 54.2741 14.9178C54.2598 14.9178 54.2409 14.9272 54.2172 14.9459C54.1937 14.9599 54.1723 14.9763 54.1533 14.995C53.9309 15.1961 53.7344 15.3645 53.5642 15.5002C53.3985 15.6358 53.2281 15.7598 53.053 15.872C52.769 16.0545 52.4992 16.1901 52.2437 16.279C51.9833 16.3632 51.775 16.3702 51.6189 16.3001C51.4958 16.2346 51.4509 16.134 51.484 15.9984C51.5125 15.858 51.574 15.7153 51.6685 15.5703C51.7633 15.4206 51.846 15.299 51.917 15.2055C51.9266 15.2008 51.9337 15.1961 51.9384 15.1914C52.227 14.8032 52.6459 14.3331 53.195 13.7811C53.5877 13.3742 53.9617 13.0467 54.3166 12.7988C54.6763 12.5462 54.9792 12.4784 55.2253 12.5953C55.3436 12.6655 55.4122 12.7684 55.4312 12.904C55.455 13.0397 55.4477 13.1894 55.4099 13.3531C55.4052 13.3765 55.4052 13.3999 55.4099 13.4233C55.4148 13.442 55.4312 13.4583 55.4597 13.4724C55.5213 13.5145 55.5424 13.573 55.5236 13.6478C55.5046 13.7226 55.4714 13.8022 55.4242 13.8864C55.4195 13.891 55.4171 13.8934 55.4171 13.8934C55.0053 14.7026 54.7545 15.3037 54.6645 15.6966C54.5794 16.0849 54.5794 16.3235 54.6645 16.4123C54.7733 16.5854 55.0194 16.6298 55.4028 16.5456C55.7909 16.4614 56.3517 16.2112 57.0853 15.7949C57.8189 15.3785 58.7655 14.7658 59.9252 13.9565ZM54.3806 14.16C54.4562 14.0431 54.5202 13.9238 54.5721 13.8022C54.629 13.6759 54.6408 13.5917 54.6076 13.5496C54.6076 13.5496 54.6053 13.5496 54.6006 13.5496C54.5959 13.5449 54.5912 13.5426 54.5865 13.5426C54.5865 13.5426 54.5865 13.5402 54.5865 13.5355C54.4633 13.5262 54.2433 13.6408 53.9262 13.8793C53.6091 14.1132 53.2777 14.3939 52.9322 14.7213C52.5869 15.0488 52.3147 15.3411 52.1158 15.5984C52.1111 15.6031 52.1064 15.6101 52.1017 15.6195C52.0686 15.6615 52.0284 15.7177 51.9809 15.7879C51.9337 15.858 51.9123 15.9188 51.917 15.9703C51.917 16.0217 51.9715 16.0404 52.0804 16.0264C52.3455 15.9843 52.6673 15.844 53.0459 15.6054C53.4246 15.3622 53.7866 15.0722 54.1321 14.7354C54.2268 14.6278 54.2717 14.5483 54.267 14.4968C54.2717 14.4968 54.2741 14.4968 54.2741 14.4968C54.2929 14.3705 54.3284 14.2582 54.3806 14.16ZM81.0951 13.9565C81.1614 13.9331 81.2039 13.9331 81.223 13.9565C81.2418 13.9799 81.2394 14.0127 81.2159 14.0548C81.1922 14.0922 81.1496 14.1249 81.0881 14.153C80.1037 14.5319 78.7004 15.0979 76.8783 15.851C75.0561 16.6041 73.2434 17.3923 71.4401 18.2156C71.3738 18.2577 71.3336 18.2974 71.3195 18.3349C71.3099 18.377 71.3195 18.4144 71.3478 18.4471C71.6035 18.7605 71.7596 19.0833 71.8164 19.4154C71.878 19.7522 71.8164 20.0843 71.6319 20.4118C71.5182 20.6316 71.3146 20.8491 71.0213 21.0642C70.7326 21.2842 70.3208 21.4735 69.7861 21.6327C69.2511 21.7916 68.5579 21.8875 67.7059 21.9203C67.597 21.9249 67.4906 21.9273 67.3864 21.9273C67.1497 21.9273 66.9274 21.911 66.7191 21.8782C66.5156 21.8455 66.3475 21.7846 66.2152 21.6959C66.0873 21.6069 66.0187 21.4759 66.0093 21.3028C65.9949 21.0363 66.1891 20.7532 66.5913 20.4539C66.9937 20.1592 67.6419 19.7756 68.5365 19.3031C68.5506 19.2938 68.565 19.2844 68.5791 19.2751C69.1091 18.9897 69.6984 18.695 70.3469 18.391C70.4367 18.3442 70.4818 18.2998 70.4818 18.2577C70.4818 18.2156 70.4628 18.1805 70.4249 18.1524C70.1079 17.9279 69.7198 17.6776 69.2607 17.4017C68.7589 17.0929 68.2383 16.7538 67.6988 16.3842C67.1594 16.01 66.6646 15.6078 66.2152 15.1774C65.7702 14.7424 65.4364 14.2793 65.2141 13.7881C64.9964 13.2923 64.9609 12.7707 65.1076 12.2234C65.349 11.33 66.0304 10.3921 67.1521 9.40979C68.2787 8.42748 69.8878 7.36797 71.9796 6.23129C74.7816 4.71104 77.252 3.8059 79.3914 3.51588C81.4406 3.27265 82.7186 3.63984 83.2249 4.61748C83.3765 4.8888 83.4 5.26066 83.2959 5.73312C83.1965 6.20557 82.9008 6.82301 82.4086 7.58548C81.9542 8.30586 81.3555 9.0192 80.6123 9.72554C79.8693 10.4272 78.8802 11.2201 77.645 12.1041C76.2535 13.0911 75.1199 13.7975 74.2443 14.2232C73.3734 14.6488 72.7322 14.864 72.3204 14.8687C71.9135 14.8734 71.7076 14.733 71.7029 14.4477C71.7217 13.9285 72.0649 13.2081 72.7322 12.2866C73.4042 11.3651 74.2302 10.4225 75.2099 9.45892C76.1943 8.49062 77.1646 7.67904 78.1205 7.02417C78.2294 6.95399 78.3335 6.9236 78.4329 6.93294C78.537 6.9423 78.6151 6.98674 78.6673 7.06626C78.7004 7.12706 78.7192 7.21594 78.7239 7.33289C78.7335 7.44517 78.7239 7.5504 78.6957 7.64863C78.6673 7.74687 78.6151 7.80534 78.5394 7.82404C78.1276 7.89423 77.6377 8.13044 77.0698 8.53271C76.5067 8.93501 75.9388 9.40512 75.366 9.94306C74.7981 10.481 74.3012 10.9885 73.8753 11.4656C73.1748 12.2468 72.6589 12.904 72.3275 13.4373C72.001 13.9706 71.9112 14.3191 72.0578 14.4828C72.1523 14.5717 72.4175 14.5646 72.8528 14.4617C73.2883 14.3541 73.8941 14.0922 74.6702 13.6759C75.4513 13.2596 76.4002 12.6304 77.5172 11.7884C78.9843 10.6611 80.106 9.65771 80.8821 8.77831C81.6583 7.89423 82.1601 7.14344 82.3872 6.52598C82.6145 5.90854 82.6405 5.42907 82.4654 5.08759C82.0677 4.35787 81.0053 4.09357 79.2777 4.29473C78.2933 4.42102 77.1883 4.68764 75.9623 5.09461C74.7412 5.50157 73.4729 6.04885 72.1573 6.73647C70.3018 7.71881 68.8064 8.67305 67.6704 9.59924C66.5346 10.5208 65.853 11.3534 65.6259 12.0971C65.479 12.6678 65.5147 13.18 65.7324 13.6338C65.95 14.0875 66.2765 14.5062 66.7121 14.8897C67.1521 15.2733 67.6302 15.6475 68.1461 16.0124C68.34 16.1574 68.5342 16.3024 68.7281 16.4474C68.7565 16.4661 68.8372 16.5222 68.9695 16.6158C69.2015 16.7702 69.4949 16.9713 69.85 17.2192C70.2049 17.4671 70.5267 17.7034 70.8154 17.9279C70.9054 17.9981 70.9881 18.0285 71.0638 18.0191C71.1395 18.0098 71.2081 17.9887 71.2697 17.956C71.2697 17.956 71.2721 17.956 71.2768 17.956C73.1511 17.1093 75.023 16.3188 76.8924 15.5844C78.762 14.8453 80.1629 14.3027 81.0951 13.9565ZM71.3407 19.7031C71.4307 19.3663 71.3146 19.0178 70.9928 18.6576C70.8887 18.5454 70.7587 18.5313 70.6024 18.6155C69.8547 18.971 69.1874 19.3078 68.6005 19.6259C67.7153 20.103 67.1213 20.4772 66.8185 20.7486C66.8138 20.7486 66.8091 20.7509 66.8042 20.7556C66.7664 20.793 66.7238 20.8398 66.6766 20.8959C66.634 20.9567 66.6103 21.0222 66.6056 21.0923C66.6056 21.1671 66.6481 21.2445 66.7332 21.3239C66.8801 21.4596 67.2562 21.5063 67.8622 21.4642C68.6903 21.408 69.4262 21.2491 70.07 20.9871C70.7136 20.7252 71.1372 20.2972 71.3407 19.7031ZM88.2442 13.9565C88.2726 13.9285 88.3008 13.9144 88.3293 13.9144C88.3577 13.9144 88.3718 13.9285 88.3718 13.9565C88.3768 13.9846 88.353 14.0267 88.3008 14.0828C87.2502 15.14 86.325 15.9375 85.5251 16.4755C84.7299 17.0087 84.0746 17.2216 83.5587 17.114C83.3457 17.0578 83.1847 16.9362 83.0759 16.7491C82.967 16.562 82.8914 16.3515 82.8486 16.1176C82.806 15.8791 82.7753 15.6615 82.7564 15.4651C82.7374 15.2265 82.709 15.0839 82.6711 15.0371C82.496 14.9529 82.2191 15.0488 81.8407 15.3248C81.4667 15.5961 81.0596 15.9492 80.6196 16.3842C80.1746 16.8193 79.7628 17.2333 79.3842 17.6262C79.1287 17.8928 78.9157 18.1103 78.7453 18.2787C78.5749 18.4471 78.466 18.536 78.4188 18.5454C78.4141 18.5454 78.4092 18.5454 78.4045 18.5454C78.381 18.55 78.3549 18.55 78.3264 18.5454C78.2933 18.5454 78.2672 18.536 78.2484 18.5173C78.2247 18.4986 78.2152 18.4658 78.2199 18.4191C78.2199 18.377 78.2413 18.3138 78.2839 18.2296C78.3027 18.2015 78.4329 18.0074 78.6743 17.6472C79.1002 17.0017 79.6754 16.1293 80.3994 15.0301C81.1235 13.9261 81.7861 12.9017 82.3872 11.9568C84.5217 8.57014 86.3983 5.88514 88.0169 3.9018C89.6357 1.91377 90.833 0.86596 91.6092 0.758374C91.9357 0.734985 92.1439 0.861284 92.234 1.13727C92.39 1.7173 91.9382 2.80487 90.8779 4.39997C89.8179 5.99038 88.2348 7.8568 86.1285 9.99919C86.1238 9.99919 86.1214 10.0015 86.1214 10.0062C84.9382 11.1663 83.6628 12.2889 82.295 13.3742C82.2901 13.3788 82.2878 13.3812 82.2878 13.3812C82.2878 13.3812 82.2854 13.3812 82.2807 13.3812C82.1672 13.47 81.9683 13.6688 81.6844 13.9776C81.4004 14.2816 81.0786 14.6863 80.719 15.1914C80.6053 15.3505 80.4941 15.5095 80.3852 15.6686C79.9546 16.2767 79.5901 16.7982 79.292 17.2333C79.2542 17.2847 79.221 17.3362 79.1926 17.3876C79.1595 17.4391 79.1381 17.4788 79.1287 17.5069C79.1193 17.5397 79.1287 17.549 79.1571 17.535C79.1808 17.5256 79.2328 17.4812 79.3132 17.4017C79.441 17.2754 79.5783 17.1374 79.725 16.9877C80.0752 16.6228 80.4562 16.2463 80.868 15.858C81.2798 15.4698 81.6844 15.14 82.0821 14.8687C82.4843 14.5927 82.8415 14.45 83.1539 14.4407C83.2533 14.4407 83.329 14.4711 83.3812 14.5319C83.4379 14.588 83.464 14.6629 83.4592 14.7564C83.4451 14.9014 83.4451 15.133 83.4592 15.451C83.4734 15.7645 83.5185 16.0615 83.5942 16.3422C83.6699 16.6181 83.7928 16.7748 83.9632 16.8123C84.2377 16.8637 84.7252 16.6883 85.4257 16.286C86.1308 15.8837 87.0704 15.1072 88.2442 13.9565ZM82.0891 13.2128C82.0844 13.2175 82.0821 13.2198 82.0821 13.2198C82.0583 13.2525 82.037 13.2853 82.0181 13.318C81.9991 13.3461 81.9874 13.3695 81.9826 13.3882C81.9779 13.4022 81.985 13.4046 82.0038 13.3952C82.0275 13.3858 82.0701 13.3554 82.1317 13.304C83.561 12.1439 84.8531 11.0025 86.0079 9.87989C86.0126 9.87522 86.015 9.87288 86.015 9.87288C86.99 8.88121 87.8846 7.86382 88.6985 6.82069C89.5125 5.77756 90.1918 4.82564 90.736 3.96494C91.2376 3.14167 91.5359 2.49849 91.6306 2.03538C91.7251 1.57229 91.711 1.34776 91.588 1.3618C91.4364 1.36647 91.0058 1.68456 90.2959 2.31606C89.5859 2.94286 88.6015 4.03979 87.3425 5.60681C86.0883 7.16918 84.5692 9.35131 82.7849 12.1533C82.5907 12.4573 82.3587 12.8105 82.0891 13.2128ZM99.2197 13.9565C99.2575 13.9378 99.2883 13.9355 99.312 13.9495C99.3356 13.9589 99.3426 13.9799 99.3332 14.0127C99.3238 14.0407 99.2907 14.0711 99.2338 14.1039C98.0317 14.8242 96.8793 15.4885 95.7764 16.0966C94.6785 16.7 93.7343 17.142 92.9438 17.4227C92.1536 17.7081 91.6209 17.7244 91.3466 17.4718C91.1619 17.2707 91.1029 17.0204 91.1692 16.7211C91.2352 16.4217 91.3584 16.0709 91.5382 15.6686C91.6045 15.5095 91.6731 15.3388 91.7441 15.1564C91.7773 15.0628 91.7937 14.9997 91.7937 14.9669C91.7937 14.9342 91.7796 14.9225 91.7512 14.9318C91.7276 14.9365 91.6969 14.9552 91.659 14.988C91.6259 15.016 91.5904 15.0464 91.5525 15.0792C91.5525 15.0839 91.5525 15.0862 91.5525 15.0862C90.4875 16.1387 89.6261 16.8988 88.9684 17.3666C88.3105 17.8297 87.7377 18.0308 87.2502 17.97C87.1272 17.956 87.0064 17.9139 86.8882 17.8437C86.7652 17.7782 86.6846 17.6566 86.6468 17.4788C86.6089 17.3058 86.6562 17.0508 86.7887 16.714C87.0586 16.0404 87.3519 15.4347 87.669 14.8968C87.9861 14.3588 88.2867 13.877 88.5707 13.4513C88.5991 13.4092 88.6276 13.3671 88.656 13.325C88.9068 12.9321 89.0699 12.6655 89.1458 12.5251C89.1458 12.5205 89.1458 12.5135 89.1458 12.5041C89.1458 12.4433 89.1529 12.3825 89.167 12.3217C89.186 12.2562 89.2239 12.1977 89.2805 12.1462C89.3896 12.0714 89.5172 12.034 89.6639 12.034C89.8108 12.034 89.9149 12.0808 89.9763 12.1743C90.0473 12.3053 90.0308 12.4737 89.9267 12.6795C89.8273 12.8807 89.6167 13.1987 89.2949 13.6338C89.0819 13.9284 88.8121 14.3284 88.4856 14.8336C88.1589 15.3388 87.8702 15.83 87.6194 16.3071C87.3686 16.7795 87.2525 17.1163 87.2715 17.3175C87.2857 17.4531 87.3686 17.542 87.52 17.5841C87.6667 17.6262 87.92 17.556 88.2797 17.3736C88.644 17.1912 89.1553 16.8333 89.8132 16.3001C90.4711 15.7668 91.3158 14.995 92.3475 13.9846C92.4044 13.9331 92.4777 13.8864 92.5677 13.8443C92.6622 13.8022 92.7379 13.7951 92.7948 13.8232C92.8517 13.8513 92.8564 13.9448 92.8089 14.1039C92.6765 14.5015 92.5346 14.8897 92.383 15.2686C92.1938 15.727 92.0518 16.1293 91.9571 16.4755C91.8623 16.817 91.8861 17.0532 92.028 17.1841C92.1228 17.2777 92.4185 17.2543 92.9154 17.114C93.4125 16.969 94.1696 16.6485 95.1874 16.1527C96.2049 15.6522 97.5489 14.9201 99.2197 13.9565ZM106.184 13.9425C106.203 13.9331 106.22 13.9355 106.234 13.9495C106.248 13.9636 106.25 13.9823 106.241 14.0056C106.236 14.0243 106.21 14.0454 106.163 14.0688C105.704 14.2419 105.245 14.4196 104.785 14.602C104.175 14.8453 103.576 15.0745 102.989 15.2897C102.403 15.5002 101.832 15.6733 101.278 15.8089C100.725 15.9445 100.199 16.0124 99.7025 16.0124C99.4326 16.0124 99.203 15.9866 99.0138 15.9352C98.8196 15.8791 98.692 15.7855 98.6304 15.6545C98.6257 15.6405 98.6187 15.6288 98.609 15.6195C98.5949 15.6101 98.5785 15.6124 98.5594 15.6265C98.5357 15.6405 98.5073 15.6709 98.4743 15.7177C97.3195 17.3689 96.1671 18.9827 95.017 20.5591C94.9838 20.6106 94.9554 20.6573 94.9316 20.6994C94.9081 20.7462 94.8867 20.7836 94.8677 20.8117C94.8442 20.8398 94.8134 20.8561 94.7756 20.8608C94.6714 20.8748 94.6075 20.8608 94.5838 20.8187C94.5553 20.7813 94.5553 20.7298 94.5838 20.6643C94.6122 20.5989 94.6524 20.531 94.7046 20.4609C96.5787 17.8835 98.4151 15.2172 100.213 12.462C102.017 9.70682 103.548 7.30248 104.807 5.24898C106.066 3.19078 106.816 1.92078 107.057 1.43898C107.095 1.34075 107.131 1.27292 107.164 1.2355C107.202 1.1934 107.239 1.16066 107.277 1.13727C107.287 1.12791 107.299 1.11856 107.313 1.1092C107.535 0.96887 107.71 0.96887 107.838 1.1092C107.942 1.22614 107.987 1.32671 107.973 1.41091C107.964 1.49043 107.919 1.58867 107.838 1.70561C107.791 1.7711 107.741 1.85296 107.689 1.95119C107.637 2.04007 107.476 2.28799 107.206 2.69494C106.941 3.09723 106.617 3.58372 106.234 4.15439C105.817 4.78119 105.398 5.41269 104.977 6.04885C104.556 6.68035 104.201 7.22063 103.912 7.66969C103.112 8.91863 101.962 10.6424 100.462 12.8409C100.41 12.9111 100.372 12.9742 100.348 13.0303C100.325 13.0818 100.332 13.1075 100.37 13.1075C100.408 13.1075 100.493 13.0654 100.625 12.9812C101.316 12.5228 101.962 12.1556 102.564 11.8796C103.169 11.6036 103.548 11.4867 103.699 11.5288C103.78 11.5569 103.834 11.6317 103.863 11.7533C103.896 11.8703 103.844 12.0246 103.706 12.2164C103.654 12.2819 103.593 12.331 103.522 12.3638C103.456 12.3965 103.399 12.4105 103.351 12.4059C103.309 12.3965 103.295 12.3614 103.309 12.3006C102.968 12.3287 102.514 12.4807 101.946 12.7567C101.383 13.0327 100.831 13.3625 100.292 13.746C99.7568 14.1296 99.3593 14.4968 99.0989 14.8476C98.8387 15.1938 98.8434 15.4557 99.1132 15.6335C99.3215 15.7691 99.6787 15.8206 100.185 15.7879C100.696 15.7551 101.432 15.5961 102.393 15.3107C103.354 15.0254 104.617 14.5693 106.184 13.9425ZM112.808 13.9425C112.827 13.9331 112.846 13.9331 112.864 13.9425C112.883 13.9472 112.898 13.9589 112.907 13.9776C112.917 13.9963 112.912 14.0173 112.893 14.0407C112.879 14.0641 112.841 14.0898 112.779 14.1179C112.779 14.1226 112.779 14.1249 112.779 14.1249C111.535 14.733 110.47 15.292 109.585 15.8019C108.7 16.3117 107.983 16.7585 107.434 17.142C107.386 17.1748 107.353 17.2028 107.334 17.2262C107.32 17.2496 107.313 17.2707 107.313 17.2894C107.318 17.3081 107.327 17.3245 107.341 17.3385C107.341 17.3385 107.344 17.3408 107.348 17.3455C107.348 17.3455 107.348 17.3479 107.348 17.3525C107.348 17.3525 107.351 17.3525 107.356 17.3525C107.502 17.5163 107.561 17.7291 107.533 17.9911C107.5 18.267 107.356 18.5617 107.1 18.8751C107.086 18.8892 107.072 18.9055 107.057 18.9243C107.034 18.9476 107.01 18.971 106.986 18.9944C106.735 19.2423 106.494 19.4061 106.262 19.4856C106.03 19.5651 105.831 19.5908 105.666 19.5628C105.647 19.5581 105.63 19.5558 105.616 19.5558C105.517 19.5324 105.441 19.4949 105.389 19.4435C105.337 19.3967 105.301 19.3476 105.282 19.2961C105.259 19.2494 105.245 19.2119 105.24 19.1839C105.24 19.1839 105.24 19.1815 105.24 19.1769C105.24 19.1769 105.237 19.1745 105.233 19.1698C105.233 19.1651 105.233 19.1628 105.233 19.1628C105.219 19.0225 105.245 18.8821 105.311 18.7418C105.339 18.681 105.372 18.6225 105.41 18.5664C105.495 18.4354 105.588 18.3208 105.687 18.2226C105.787 18.1244 105.867 18.0472 105.929 17.9911C105.933 17.9911 105.936 17.9887 105.936 17.984C105.94 17.984 105.943 17.984 105.943 17.984C105.952 17.9747 105.959 17.9677 105.964 17.963C106.101 17.8367 106.212 17.7408 106.298 17.6753C106.307 17.6659 106.317 17.6566 106.326 17.6472C106.383 17.6098 106.44 17.5677 106.496 17.5209C106.558 17.4742 106.598 17.4344 106.617 17.4017C106.641 17.3642 106.65 17.3338 106.645 17.3105C106.641 17.2871 106.631 17.266 106.617 17.2473C106.589 17.2099 106.558 17.1701 106.525 17.128C106.43 17.0064 106.324 16.8637 106.205 16.7C106.13 16.5877 106.047 16.4661 105.957 16.3351C105.526 15.7083 105.46 15.0955 105.758 14.4968C106.127 13.7577 107.022 13.1309 108.442 12.6164C108.56 12.5789 108.662 12.5813 108.747 12.6234C108.832 12.6608 108.882 12.731 108.896 12.8339C108.91 12.9415 108.896 13.0631 108.853 13.1987C108.811 13.3344 108.733 13.428 108.619 13.4794C108.056 13.6759 107.573 13.87 107.171 14.0618C106.773 14.2536 106.499 14.4594 106.347 14.6792C106.191 14.9365 106.13 15.1891 106.163 15.437C106.196 15.6803 106.264 15.8931 106.369 16.0755C106.473 16.258 106.556 16.3842 106.617 16.4544C106.631 16.4731 106.641 16.4848 106.645 16.4895C106.769 16.6626 106.882 16.8076 106.986 16.9245C107.072 17.0228 107.164 17.0438 107.263 16.9877C108.437 16.2065 110.285 15.1914 112.808 13.9425ZM105.836 19.1558C105.997 19.1698 106.163 19.1043 106.333 18.9593C106.503 18.819 106.645 18.6553 106.759 18.4682C106.877 18.2811 106.937 18.122 106.937 17.9911C106.937 17.8741 106.918 17.7712 106.88 17.6823C106.856 17.6309 106.83 17.6075 106.802 17.6122C106.773 17.6215 106.745 17.6356 106.716 17.6543C106.522 17.8086 106.366 17.9396 106.248 18.0472C106.243 18.0519 106.239 18.0565 106.234 18.0612C106.234 18.0612 106.231 18.0636 106.227 18.0682C106.222 18.0729 106.215 18.0776 106.205 18.0823C106.201 18.0869 106.196 18.094 106.191 18.1033C106.177 18.1127 106.165 18.122 106.156 18.1314C106.156 18.1314 106.156 18.1337 106.156 18.1384C106.146 18.1431 106.139 18.1501 106.134 18.1594C106.13 18.1594 106.127 18.1594 106.127 18.1594C106.127 18.1594 106.127 18.1618 106.127 18.1665C106.122 18.1665 106.12 18.1688 106.12 18.1735C105.992 18.2904 105.872 18.4542 105.758 18.6646C105.692 18.7863 105.659 18.8938 105.659 18.9874C105.659 19.081 105.718 19.1371 105.836 19.1558ZM119.921 13.9565C119.95 13.9285 119.978 13.9144 120.006 13.9144C120.035 13.9144 120.049 13.9285 120.049 13.9565C120.054 13.9846 120.03 14.0267 119.978 14.0828C118.927 15.14 118.002 15.9375 117.202 16.4755C116.407 17.0087 115.752 17.2216 115.236 17.114C115.023 17.0578 114.862 16.9362 114.753 16.7491C114.644 16.562 114.568 16.3515 114.526 16.1176C114.483 15.8791 114.452 15.6615 114.433 15.4651C114.415 15.2265 114.386 15.0839 114.348 15.0371C114.173 14.9529 113.896 15.0488 113.518 15.3248C113.144 15.5961 112.737 15.9492 112.297 16.3842C111.852 16.8193 111.44 17.2333 111.061 17.6262C110.806 17.8928 110.593 18.1103 110.422 18.2787C110.252 18.4471 110.143 18.536 110.096 18.5454C110.091 18.5454 110.086 18.5454 110.082 18.5454C110.058 18.55 110.032 18.55 110.003 18.5454C109.97 18.5454 109.944 18.536 109.925 18.5173C109.902 18.4986 109.892 18.4658 109.897 18.4191C109.897 18.377 109.918 18.3138 109.961 18.2296C109.98 18.2015 110.11 18.0074 110.351 17.6472C110.777 17.0017 111.352 16.1293 112.077 15.0301C112.8 13.9261 113.463 12.9017 114.064 11.9568C116.199 8.57014 118.075 5.88514 119.694 3.9018C121.313 1.91377 122.51 0.86596 123.286 0.758374C123.613 0.734985 123.821 0.861284 123.911 1.13727C124.067 1.7173 123.615 2.80487 122.555 4.39997C121.495 5.99038 119.912 7.8568 117.806 9.99919C117.801 9.99919 117.798 10.0015 117.798 10.0062C116.615 11.1663 115.34 12.2889 113.972 13.3742C113.967 13.3788 113.965 13.3812 113.965 13.3812C113.965 13.3812 113.963 13.3812 113.958 13.3812C113.844 13.47 113.645 13.6688 113.362 13.9776C113.077 14.2816 112.756 14.6863 112.396 15.1914C112.282 15.3505 112.171 15.5095 112.062 15.6686C111.632 16.2767 111.267 16.7982 110.969 17.2333C110.931 17.2847 110.898 17.3362 110.87 17.3876C110.836 17.4391 110.815 17.4788 110.806 17.5069C110.796 17.5397 110.806 17.549 110.834 17.535C110.858 17.5256 110.91 17.4812 110.99 17.4017C111.118 17.2754 111.255 17.1374 111.402 16.9877C111.752 16.6228 112.133 16.2463 112.545 15.858C112.957 15.4698 113.362 15.14 113.759 14.8687C114.161 14.5927 114.519 14.45 114.831 14.4407C114.93 14.4407 115.006 14.4711 115.058 14.5319C115.115 14.588 115.141 14.6629 115.136 14.7564C115.122 14.9014 115.122 15.133 115.136 15.451C115.151 15.7645 115.195 16.0615 115.271 16.3422C115.347 16.6181 115.47 16.7748 115.64 16.8123C115.915 16.8637 116.402 16.6883 117.103 16.286C117.808 15.8837 118.748 15.1072 119.921 13.9565ZM113.766 13.2128C113.761 13.2175 113.759 13.2198 113.759 13.2198C113.735 13.2525 113.714 13.2853 113.695 13.318C113.676 13.3461 113.664 13.3695 113.66 13.3882C113.655 13.4022 113.662 13.4046 113.681 13.3952C113.704 13.3858 113.747 13.3554 113.809 13.304C115.238 12.1439 116.53 11.0025 117.685 9.87989C117.69 9.87522 117.692 9.87288 117.692 9.87288C118.667 8.88121 119.562 7.86382 120.375 6.82069C121.189 5.77756 121.869 4.82564 122.413 3.96494C122.915 3.14167 123.213 2.49849 123.308 2.03538C123.402 1.57229 123.388 1.34776 123.265 1.3618C123.114 1.36647 122.683 1.68456 121.973 2.31606C121.263 2.94286 120.278 4.03979 119.019 5.60681C117.765 7.16918 116.246 9.35131 114.462 12.1533C114.268 12.4573 114.036 12.8105 113.766 13.2128ZM121.036 12.869C120.96 12.8596 120.927 12.8292 120.936 12.7777C120.946 12.7263 120.967 12.6655 121 12.5953C121.033 12.5392 121.057 12.4854 121.071 12.4339C121.104 12.317 121.159 12.2234 121.235 12.1533C121.315 12.0784 121.412 12.041 121.526 12.041C121.606 12.041 121.677 12.048 121.739 12.0621C121.8 12.0761 121.84 12.1135 121.859 12.1743C121.883 12.2351 121.873 12.3287 121.831 12.455C121.755 12.6374 121.634 12.7567 121.469 12.8128C121.303 12.869 121.159 12.8877 121.036 12.869ZM124.373 13.9565C124.424 13.9191 124.46 13.9074 124.479 13.9214C124.503 13.9355 124.507 13.9612 124.493 13.9986C124.479 14.0314 124.451 14.0641 124.408 14.0969C123.883 14.4524 123.3 14.8383 122.662 15.2546C122.023 15.6709 121.395 16.0615 120.78 16.4264C120.17 16.7865 119.642 17.0602 119.197 17.2473C118.748 17.4344 118.454 17.4718 118.317 17.3596C118.161 17.1958 118.13 16.9666 118.225 16.6719C118.314 16.3772 118.485 16.0404 118.736 15.6615C118.982 15.278 119.259 14.8757 119.566 14.4547C119.613 14.3892 119.656 14.3307 119.694 14.2793C119.737 14.2185 119.777 14.1623 119.815 14.1109C119.853 14.0594 119.893 14.001 119.935 13.9355C119.987 13.87 120.08 13.8185 120.212 13.7811C120.345 13.7437 120.475 13.7273 120.603 13.732C120.73 13.732 120.813 13.7601 120.851 13.8162C120.884 13.877 120.887 13.9331 120.858 13.9846C120.83 14.0314 120.785 14.0805 120.723 14.1319C120.686 14.1694 120.645 14.2115 120.603 14.2582C120.584 14.2769 120.544 14.3167 120.482 14.3775C120.312 14.5506 120.075 14.8079 119.772 15.1493C119.464 15.4861 119.195 15.83 118.963 16.1808C118.731 16.5316 118.646 16.8052 118.707 17.0017C118.811 17.1561 119.299 17.0087 120.17 16.5597C121.04 16.1106 122.441 15.2429 124.373 13.9565ZM132.984 13.9565C133.003 13.9378 133.019 13.9308 133.033 13.9355C133.053 13.9355 133.062 13.9448 133.062 13.9636C133.062 13.9776 133.05 13.9963 133.026 14.0197C131.616 15.1751 130.416 16.0147 129.427 16.5386C128.443 17.0625 127.7 17.2028 127.198 16.9596C126.871 16.7865 126.68 16.4848 126.623 16.0545C126.571 15.6241 126.661 15.1026 126.893 14.4898C126.935 14.3822 126.983 14.2746 127.035 14.167C127.125 13.9846 127.188 13.8162 127.226 13.6618C127.236 13.6057 127.224 13.5753 127.191 13.5706C127.162 13.5613 127.125 13.5683 127.077 13.5917C127.03 13.6104 126.985 13.6314 126.942 13.6548C126.587 13.8981 126.133 14.2699 125.579 14.7704C125.026 15.271 124.507 15.7504 124.025 16.2089C123.547 16.6626 123.234 16.9479 123.088 17.0649C122.964 17.1678 122.839 17.245 122.711 17.2964C122.583 17.3432 122.494 17.3455 122.441 17.3034C122.385 17.2567 122.401 17.142 122.491 16.9596C122.501 16.9409 122.6 16.7725 122.789 16.4544C122.974 16.1317 123.208 15.7434 123.492 15.2897C123.776 14.8313 124.067 14.3869 124.365 13.9565C124.436 13.8583 124.519 13.7998 124.614 13.7811C124.713 13.7577 124.81 13.7671 124.905 13.8092C124.999 13.8466 125.056 13.9027 125.075 13.9776C125.099 14.0477 125.071 14.1507 124.99 14.2863C124.9 14.4173 124.699 14.6629 124.387 15.023C124.008 15.4628 123.627 15.9305 123.244 16.4264C123.206 16.4825 123.173 16.5363 123.144 16.5877C123.111 16.6345 123.092 16.6719 123.088 16.7C123.078 16.7281 123.092 16.7351 123.13 16.7211C123.168 16.7023 123.237 16.6509 123.336 16.5667C123.629 16.3047 123.989 15.9703 124.415 15.5633C124.86 15.1423 125.314 14.7213 125.778 14.3003C126.247 13.8747 126.663 13.5262 127.028 13.2549C127.392 12.9789 127.648 12.8573 127.794 12.89C128.026 12.9555 128.123 13.1052 128.085 13.3391C128.048 13.573 127.882 13.9752 127.589 14.5459C127.432 14.8687 127.316 15.1985 127.241 15.5353C127.17 15.8674 127.155 16.155 127.198 16.3983C127.245 16.6368 127.368 16.7772 127.567 16.8193C128.031 16.8801 128.552 16.7795 129.129 16.5176C129.711 16.2556 130.307 15.9095 130.918 15.4791C131.533 15.0488 132.127 14.6114 132.7 14.167C132.795 14.0969 132.889 14.0267 132.984 13.9565ZM139.877 13.9565C139.896 13.9425 139.917 13.9355 139.941 13.9355C139.965 13.9355 139.981 13.9402 139.991 13.9495C140.005 13.9589 140.003 13.9776 139.984 14.0056C139.97 14.0337 139.932 14.0711 139.87 14.1179C138.753 14.9131 137.766 15.5727 136.91 16.0966C136.053 16.6158 135.407 16.8848 134.972 16.9035C134.744 16.9035 134.558 16.8544 134.411 16.7561C134.013 16.4661 133.949 15.9212 134.219 15.1213C134.243 15.0464 134.255 14.995 134.255 14.9669C134.255 14.9342 134.245 14.9178 134.226 14.9178C134.212 14.9178 134.193 14.9272 134.169 14.9459C134.146 14.9599 134.125 14.9763 134.106 14.995C133.883 15.1961 133.687 15.3645 133.516 15.5002C133.351 15.6358 133.18 15.7598 133.005 15.872C132.721 16.0545 132.451 16.1901 132.196 16.279C131.936 16.3632 131.727 16.3702 131.571 16.3001C131.448 16.2346 131.403 16.134 131.436 15.9984C131.465 15.858 131.526 15.7153 131.621 15.5703C131.716 15.4206 131.798 15.299 131.869 15.2055C131.879 15.2008 131.886 15.1961 131.891 15.1914C132.179 14.8032 132.598 14.3331 133.147 13.7811C133.54 13.3742 133.914 13.0467 134.269 12.7988C134.629 12.5462 134.932 12.4784 135.178 12.5953C135.296 12.6655 135.364 12.7684 135.384 12.904C135.407 13.0397 135.4 13.1894 135.362 13.3531C135.357 13.3765 135.357 13.3999 135.362 13.4233C135.367 13.442 135.384 13.4583 135.412 13.4724C135.473 13.5145 135.495 13.573 135.476 13.6478C135.457 13.7226 135.424 13.8022 135.376 13.8864C135.372 13.891 135.369 13.8934 135.369 13.8934C134.957 14.7026 134.707 15.3037 134.617 15.6966C134.531 16.0849 134.531 16.3235 134.617 16.4123C134.726 16.5854 134.972 16.6298 135.355 16.5456C135.743 16.4614 136.304 16.2112 137.038 15.7949C137.771 15.3785 138.718 14.7658 139.877 13.9565ZM134.333 14.16C134.409 14.0431 134.472 13.9238 134.524 13.8022C134.581 13.6759 134.593 13.5917 134.56 13.5496C134.56 13.5496 134.558 13.5496 134.553 13.5496C134.548 13.5449 134.543 13.5426 134.539 13.5426C134.539 13.5426 134.539 13.5402 134.539 13.5355C134.416 13.5262 134.196 13.6408 133.878 13.8793C133.561 14.1132 133.23 14.3939 132.884 14.7213C132.539 15.0488 132.267 15.3411 132.068 15.5984C132.063 15.6031 132.059 15.6101 132.054 15.6195C132.021 15.6615 131.98 15.7177 131.933 15.7879C131.886 15.858 131.865 15.9188 131.869 15.9703C131.869 16.0217 131.924 16.0404 132.033 16.0264C132.298 15.9843 132.62 15.844 132.998 15.6054C133.377 15.3622 133.739 15.0722 134.084 14.7354C134.179 14.6278 134.224 14.5483 134.219 14.4968C134.224 14.4968 134.226 14.4968 134.226 14.4968C134.245 14.3705 134.281 14.2582 134.333 14.16Z" fill="#858585"/>
</mask>
<g mask="url(#mask0_258_20517)">
<rect x="-9.67188" y="-5.58398" width="216.982" height="53.3127" fill="#272727"/>
</g>
</svg>
